<?xml version="1.0" encoding="iso-8859-1"?>
<!-- Generator: Adobe Illustrator 19.0.0, SVG Export Plug-In . SVG Version: 6.00 Build 0)  -->
<svg version="1.1" id="Capa_1" xmlns="http://www.w3.org/2000/svg" xmlns:xlink="http://www.w3.org/1999/xlink" x="0px" y="0px"
	 viewBox="0 0 51.68 51.68" style="enable-background:new 0 0 51.68 51.68;" xml:space="preserve">
<path d="M36.11,33.01c-2.31,0-4.422,0.848-6.054,2.243l-7.035-3.813c1.177-1.562,1.884-3.498,1.884-5.6
	c0-2.102-0.707-4.038-1.884-5.6l7.035-3.814c1.632,1.395,3.744,2.244,6.055,2.244c5.147,0,9.335-4.187,9.335-9.334
	C45.445,4.188,41.257,0,36.11,0s-9.335,4.188-9.335,9.335c0,2.094,0.701,4.022,1.87,5.581l-7.039,3.816
	c-1.629-1.386-3.735-2.227-6.036-2.227c-5.148,0-9.335,4.188-9.335,9.335c0,5.148,4.188,9.335,9.335,9.335
	c2.301,0,4.407-0.841,6.036-2.227l7.039,3.815c-1.169,1.559-1.87,3.487-1.87,5.581c0,5.147,4.188,9.335,9.335,9.335
	s9.335-4.188,9.335-9.335C45.445,37.198,41.257,33.01,36.11,33.01z M36.11,2c4.045,0,7.335,3.291,7.335,7.335
	c0,4.045-3.29,7.334-7.335,7.334s-7.335-3.29-7.335-7.334C28.775,5.291,32.065,2,36.11,2z M8.235,25.84
	c0-4.044,3.29-7.335,7.335-7.335c4.045,0,7.335,3.291,7.335,7.335c0,4.045-3.29,7.335-7.335,7.335
	C11.525,33.175,8.235,29.884,8.235,25.84z M36.11,49.68c-4.045,0-7.335-3.291-7.335-7.335s3.29-7.334,7.335-7.334
	s7.335,3.29,7.335,7.334S40.155,49.68,36.11,49.68z"/>
<g>
</g>
<g>
</g>
<g>
</g>
<g>
</g>
<g>
</g>
<g>
</g>
<g>
</g>
<g>
</g>
<g>
</g>
<g>
</g>
<g>
</g>
<g>
</g>
<g>
</g>
<g>
</g>
<g>
</g>
</svg>
