<?xml version="1.0" encoding="iso-8859-1"?>
<!-- Generator: Adobe Illustrator 19.0.0, SVG Export Plug-In . SVG Version: 6.00 Build 0)  -->
<svg version="1.1" id="Capa_1" xmlns="http://www.w3.org/2000/svg" xmlns:xlink="http://www.w3.org/1999/xlink" x="0px" y="0px"
	 viewBox="0 0 50.73 50.73" style="enable-background:new 0 0 50.73 50.73;" xml:space="preserve">
<g>
	<path d="M49.021,34.034l-10.846-7.346c-0.306-0.207-0.701-0.229-1.029-0.055c-0.327,0.173-0.531,0.513-0.531,0.883v6.346H26.089
		L13.271,15.299c-0.188-0.27-0.495-0.432-0.823-0.432H1c-0.553,0-1,0.448-1,1s0.447,1,1,1h10.924l5.867,8.498l-5.867,8.497H1
		c-0.553,0-1,0.448-1,1c0,0.552,0.447,1,1,1h11.448c0.328,0,0.636-0.162,0.823-0.432l5.735-8.305l5.734,8.305
		c0.188,0.27,0.495,0.432,0.823,0.432h12.05c0.553,0,1-0.448,1-1v-5.461l8.062,5.461l-8.062,5.461v-0.078c0-0.552-0.447-1-1-1
		c-0.553,0-1,0.448-1,1v1.963c0,0.37,0.204,0.71,0.531,0.883c0.147,0.078,0.309,0.117,0.469,0.117c0.196,0,0.393-0.058,0.561-0.172
		l10.846-7.347c0.275-0.186,0.439-0.497,0.439-0.828C49.46,34.531,49.296,34.22,49.021,34.034z"/>
	<path d="M50.291,15.039L39.445,7.693c-0.306-0.207-0.7-0.228-1.029-0.055c-0.327,0.173-0.531,0.513-0.531,0.883v6.346h-11.05
		c-0.328,0-0.636,0.162-0.823,0.432l-3.026,4.383c-0.313,0.454-0.199,1.078,0.255,1.391c0.454,0.314,1.077,0.2,1.392-0.254
		l2.727-3.951h11.525c0.553,0,1-0.448,1-1v-5.461l8.062,5.461l-8.062,5.461v-0.078c0-0.552-0.447-1-1-1s-1,0.448-1,1v1.963
		c0,0.37,0.204,0.71,0.531,0.883c0.147,0.078,0.309,0.117,0.469,0.117c0.196,0,0.393-0.058,0.561-0.172l10.846-7.347
		c0.275-0.186,0.439-0.497,0.439-0.828C50.73,15.536,50.566,15.225,50.291,15.039z"/>
</g>
<g>
</g>
<g>
</g>
<g>
</g>
<g>
</g>
<g>
</g>
<g>
</g>
<g>
</g>
<g>
</g>
<g>
</g>
<g>
</g>
<g>
</g>
<g>
</g>
<g>
</g>
<g>
</g>
<g>
</g>
</svg>
