<?xml version="1.0" encoding="iso-8859-1"?>
<!-- Generator: Adobe Illustrator 19.0.0, SVG Export Plug-In . SVG Version: 6.00 Build 0)  -->
<svg version="1.1" id="Capa_1" xmlns="http://www.w3.org/2000/svg" xmlns:xlink="http://www.w3.org/1999/xlink" x="0px" y="0px"
	 viewBox="0 0 50.261 50.261" style="enable-background:new 0 0 50.261 50.261;" xml:space="preserve">
<path d="M44.973,19.336h-8.783V4.92c0-2.713-2.208-4.92-4.92-4.92h-4.035c-2.713,0-4.921,2.208-4.921,4.92v10.643h-10.03
	c-4.409,0-7.995,3.587-7.995,7.996v18.707c0,4.409,3.587,7.996,7.995,7.996h22.906c0.552,0,1-0.448,1-1v-2.773h8.783
	c0.552,0,1-0.448,1-1V20.336C45.973,19.783,45.525,19.336,44.973,19.336z M35.189,44.488c-0.552,0-1,0.448-1,1v2.773H12.283
	c-3.306,0-5.995-2.689-5.995-5.996V23.559c0-3.306,2.69-5.996,5.995-5.996h11.03c0.552,0,1-0.448,1-1V4.92
	c0-1.61,1.311-2.92,2.921-2.92h4.035c1.61,0,2.92,1.31,2.92,2.92v34.908c0,0.552,0.448,1,1,1s1-0.448,1-1V21.336h7.783v3.24h-3.943
	c-0.552,0-1,0.448-1,1c0,0.552,0.448,1,1,1h3.943v17.912H35.189z"/>
<g>
</g>
<g>
</g>
<g>
</g>
<g>
</g>
<g>
</g>
<g>
</g>
<g>
</g>
<g>
</g>
<g>
</g>
<g>
</g>
<g>
</g>
<g>
</g>
<g>
</g>
<g>
</g>
<g>
</g>
</svg>
